<svg version="1.0" xmlns="http://www.w3.org/2000/svg" width="2592" height="2592" viewBox="0 0 1944 1944"><g fill="#3b4853"><path d="M1703 1.3c-.3.3-3.6.8-7.5 1.2-46.1 4.3-104.6 20.7-170 47.7-55.2 22.8-130.9 61.8-195 100.6-7.7 4.6-15.3 9.2-17 10.2-21.4 12.3-128.9 82.7-149.1 97.6-10.4 7.6-11.2 8.7-10.7 13.7.3 3.1 1.2 4.9 3.5 6.9 5.6 4.9 7.6 4.5 30.3-6.6 13.5-6.6 29-13.9 41.5-19.3 19.1-8.5 26-11.4 29.5-12.6 2.2-.8 8.1-3.2 13-5.2 28.7-12 98.4-31.9 122.2-35.1 1.7-.2 7.4-1.1 12.5-2 13.5-2.3 61.6-2.8 76-.8 46 6.3 85.7 30.1 104.1 62.4 6.3 10.9 12.8 31.9 14.3 46.1 1.1 10.4.8 39.6-.5 50.9-4.7 38.6-19.7 89.6-41 139.7-15.6 36.6-40.5 87.4-57.4 117.3-1.1 1.9-3.1 5.5-4.5 8-17.2 30.7-42.1 71.4-65.7 107.5-6.9 10.4-12.5 19.7-12.5 20.5 0 .8 2.8 7.3 6.1 14.5 3.4 7.1 8.5 18.2 11.4 24.5 12.6 27.4 26.9 58.1 40.1 86.2 4.6 9.7 11.5 24.6 15.3 33 3.8 8.4 9.2 20.2 12.1 26.3 2.8 6 7.3 15.5 9.8 21 7.9 16.8 9.6 20 11.3 20.3 1.5.3 20.5-23.4 35.2-43.8 2.6-3.6 8.8-12.1 13.9-19 8.4-11.4 30.1-42.1 43.7-61.7 24.9-35.9 65.5-98.4 86.6-133.3 10.9-18.1 42.5-72.7 42.5-73.5 0-.2 1.5-3 3.3-6.2 11.6-20 44.9-85.2 58.2-113.8 6.2-13.3 20.9-48.1 30.4-71.7 25.5-64.1 45.6-138.5 52.5-195.1.3-2.6.8-6.6 1.1-9 2.6-20 3.4-49.4 2.1-73.7-.4-7.4-.9-15.1-1.2-17-4.8-33.9-10.5-54.3-20.8-75-18.5-36.9-45.1-60.1-83.1-72.5-9.8-3.2-26.5-6.9-36.5-7.9-7.1-.8-49.4-1.9-50-1.3zM188.5 105.5c-38.3 3.9-72.5 17.1-96 36.9C63.1 167.1 44 207.2 40.2 252c-.9 11-.9 56.9.1 68.5 1.1 13.8 2.8 26.2 8.3 60.5A973.01 973.01 0 00119 620c7.8 17.9 29.9 62.7 33.1 67.1 1 1.5 1.9 3 1.9 3.4 0 1 7.9 14.8 20.7 36.3 12.5 21 37.3 58.1 41.8 62.6 4.3 4.3 8.7 5 14.1 2.5 8.6-4.1 8.7-9.9.3-27.5-26.5-56.1-42.8-107.4-48.4-153.2-1.3-10.7-1.4-55.3-.1-61.7.4-1.7 1.4-6.6 2.2-10.9 3.6-18.1 12.5-38.5 23.5-54 12.4-17.4 34-34.6 54.2-43.2 12.2-5.1 30.4-10.5 44.2-13 14.3-2.6 68.6-2.6 85.5-.1 49.2 7.5 87.7 17.9 141.7 38.1 33.7 12.6 78.5 33.7 128.8 60.9 69.2 37.3 162.8 97.9 230.5 149.2 45.9 34.7 96.1 75 123.5 99 1.7 1.4 5.7 5 9 7.8 3.3 2.9 10.5 9.2 16 14.1l13.5 12c13.3 11.7 22.3 19.9 36 32.6 29.4 27.2 99.6 97.2 125.9 125.5 9.5 10.2 17.1 19.3 17.1 20.5 0 1.2-7.3 10.2-17 21-4.2 4.7-16.6 18.6-27.6 31-56 63.3-145.1 153.9-207.3 211-5.7 5.2-11.6 10.6-13.1 12-1.5 1.4-6.4 5.9-11.1 10-4.6 4.1-9 8-9.6 8.7-.7.6-9 7.8-18.5 16-9.5 8.1-17.8 15.2-18.4 15.8-.6.5-3.3 2.8-6 5-2.6 2.2-10.2 8.5-16.9 14-13.9 11.7-38.1 31.1-51 41-4.9 3.8-9.2 7.2-9.5 7.5-3.1 3.4-56.6 42.4-82.5 60.1-11.5 8-22.3 15.4-24 16.5-14.2 10-68 42.6-94.5 57.4-34.6 19.4-86 44.2-114 55.1-4.1 1.6-8.4 3.4-9.5 3.9-4.3 1.9-19.6 7.4-32 11.5-37.4 12.4-71.4 20.1-105.9 24.1-13.1 1.4-54.7.4-65.6-1.6-18.5-3.5-33.8-8.7-48.9-16.5-39.9-20.7-66.8-66.7-70.9-121.2-1.1-15.4-.4-50.7 1.4-65.3 2.2-18.1 8-48.7 12.9-68 6.5-26.1 15.2-52.6 29.6-91.3 4.9-13.1 8.9-24.8 8.9-26.1 0-2.6-3.7-6.5-6.9-7.1-1.2-.2-3.3 0-4.6.5-2.3.9-10.5 12.4-23.1 32.3-2.7 4.3-5.6 8.9-6.4 10.2-7 10.8-43.8 72.8-52 87.5a771.6 771.6 0 01-11 19.5c-2.1 2.7-33.7 66.4-41.7 84-20 43.9-35.2 83.6-46.7 121.5-5.2 17.5-13.5 52.3-16 67.5-5.5 33.1-6.5 45.8-6.1 77 .1 14.3.5 26.9.8 28a92 92 0 011.2 8c2.8 25.2 13 55.2 25.7 76.3 2.9 4.8 5.8 9.3 6.4 10.2.7.8 3.4 4.4 6.1 7.9 17.7 23.9 49.4 46.1 81.7 57.1 11 3.8 27.3 8.4 33.1 9.5 17.5 3.1 22.8 3.8 37 5 7.8.7 55.5.7 62 0 10.2-1 16-1.7 17.5-2 .8-.1 4.5-.6 8.2-.9 3.7-.4 7.7-.9 9-1.1 1.3-.2 6.6-1.1 11.8-2 53.8-9.2 126.4-32 183-57.5 28.8-13 105.1-52.3 129.8-66.9 2.9-1.7 5.5-3.1 5.7-3.1.6 0 53.9-31.9 72-43.2 58.5-36.3 110.9-71.9 170-115.4 22-16.2 66.3-50 67.5-51.4.3-.4 6.1-5.1 13-10.5 16.3-12.8 56-45.5 70-57.5 24.7-21.3 52.2-45.6 68-60.1 5.3-4.8 10.5-9.6 11.6-10.6 2.6-2.2 22.1-20.3 27.9-25.8 2.4-2.2 11.6-11 20.6-19.5 30.7-29 114.2-113.2 126.9-128 1.2-1.4 3.8-4.3 5.8-6.5l9.6-10.5c3.3-3.6 8-8.8 10.6-11.5 6.8-7.3 37.6-42 44-49.5 6.9-8.2 18.1-20 18.9-20 .3 0 2.2 2.4 4.2 5.3 1.9 2.8 8.3 11.9 14.1 20.2 30.7 43.9 60.2 91.1 89.1 142.6 10.8 19.2 42.3 83.4 50 101.9 12.9 30.8 27.9 73.1 33.4 94 2.8 10.7 9.8 43.6 10.7 50.2 2.1 16.5 2.8 26.8 2.8 44.8 0 22.9-1 32.3-5.3 48.7-7.1 27.3-16.4 44.3-34.3 62.7-25.1 25.8-52.6 37.9-97.6 43.1-5.4.6-38.5.6-45.5 0-11.1-.9-36.2-4.6-48.5-7-17.5-3.4-57.7-14.9-84-24-10.5-3.6-33.4-12.1-36.5-13.5-1.1-.6-9.4-4.1-18.5-7.9-9.1-3.8-21.9-9.2-28.4-12.1-14.7-6.3-16.8-6.8-20.3-4.4-6.9 4.4-7.2 9.4-1 15.1 5.1 4.7 21.7 16.5 32.4 23.1 4.3 2.7 11.6 7.3 16.3 10.4 4.7 3 9.9 6.3 11.5 7.2 1.7.9 5 3 7.5 4.6 2.5 1.6 6.8 4.2 9.5 5.8 38.5 22.2 39.6 22.8 54.5 30.9 19.5 10.6 57 29.7 74.5 37.8 43.8 20.4 66.9 30.2 109 46.5 55.1 21.2 122.3 40.2 171 48.4 36.9 6.1 46.1 7 79 7 40.4.1 56.2-1.6 82.8-8.9 30.2-8.2 51.9-20.7 73.2-42 13.6-13.5 24.5-31.4 33.9-55.3 5.5-13.9 11.1-40.2 11.6-54.5.5-10.4.5-48.4.1-60.2-.9-24.6-10.2-74.7-20.7-110.9-3.4-11.6-5.5-18-15.9-48.6-5.9-17.1-19.5-51.5-29.2-73.5-10.7-24.4-38.6-80.4-52.9-106.5-15.3-27.7-44.5-77-60.9-102.5-1.7-2.8-6.1-9.5-9.6-15-37.1-57.9-89-130.4-137.8-192.5l-12.2-15.5c-13.8-17.6-45.8-57.5-48.5-60.5-1.8-1.9-6-6.9-9.5-11-3.4-4.1-6.5-7.7-6.8-8-.4-.3-3.8-4.3-7.6-9s-7.2-8.7-7.5-9c-.3-.3-3-3.4-6-7s-6.9-8.1-8.6-10c-3.7-4.1-10.4-11.7-19.4-22-3.6-4.1-8.5-9.7-11-12.4-2.5-2.8-4.9-5.6-5.5-6.2-.8-.9-5.6-6.2-17-18.9-1.5-1.6-10.8-11.7-22.5-24.4-5.8-6.3-11.3-12.3-12.3-13.4-8.4-9.7-38.7-40.7-83.2-85.2-48.7-48.7-60.3-60.2-86.1-84.5-19.4-18.4-65.7-60.4-81.5-74.1-1.3-1.1-3.7-3.3-5.4-4.7-5.9-5.4-25.4-22-43.4-37.2-70.4-59.4-132.8-107.2-210.6-161.2-9.5-6.6-58.3-39-75.2-49.9C738 296 669.1 256.3 599.1 221.6c-72.9-36.1-105-50.2-159.6-70.3-58.6-21.5-119.6-37.8-161-42.8-2.7-.4-6-.8-7.3-1-1.3-.2-5.3-.7-9-1.1-3.7-.3-7-.8-7.4-1-2-1.2-54.5-1.1-66.3.1z"/></g></svg>